<svg xmlns="http://www.w3.org/2000/svg" version="1.1" xmlns:xlink="http://www.w3.org/1999/xlink" xmlns:svgjs="http://svgjs.dev/svgjs" width="1500" height="1500" viewBox="0 0 1500 1500"><g transform="matrix(1,0,0,1,-0.323615160350073,-0.3236151603499593)"><svg viewBox="0 0 343 343" data-background-color="#ffffff" preserveAspectRatio="xMidYMid meet" height="1500" width="1500" xmlns="http://www.w3.org/2000/svg" xmlns:xlink="http://www.w3.org/1999/xlink"><g id="tight-bounds" transform="matrix(1,0,0,1,0.0740000000000407,0.07400000000001228)"><svg viewBox="0 0 342.85155851775386 342.85155851775386" height="342.85155851775386" width="342.85155851775386"><g><svg></svg></g><g><svg viewBox="0 0 342.85155851775386 342.85155851775386" height="342.85155851775386" width="342.85155851775386"><g><path d="M0 171.426c0-94.676 76.75-171.426 171.426-171.426 94.676 0 171.426 76.75 171.426 171.426 0 94.676-76.75 171.426-171.426 171.426-94.676 0-171.426-76.75-171.426-171.426zM171.426 334.564c90.099 0 163.139-73.04 163.138-163.138 0-90.099-73.04-163.139-163.138-163.139-90.099 0-163.139 73.04-163.139 163.139 0 90.099 73.04 163.139 163.139 163.138z" data-fill-palette-color="tertiary" fill="#ee3e38" stroke="transparent"></path><ellipse rx="164.56874808852186" ry="164.56874808852186" cx="171.42577925887693" cy="171.42577925887693" fill="#ee3e38" stroke="transparent" stroke-width="0" fill-opacity="1" data-fill-palette-color="tertiary"></ellipse></g><g transform="matrix(1,0,0,1,64.84655864529837,125.47829303880084)"><svg viewBox="0 0 213.1584412271571 91.89497244015217" height="91.89497244015217" width="213.1584412271571"><g><svg viewBox="0 0 213.1584412271571 91.89497244015217" height="91.89497244015217" width="213.1584412271571"><g><svg viewBox="0 0 213.1584412271571 91.89497244015217" height="91.89497244015217" width="213.1584412271571"><g><svg viewBox="0 0 213.1584412271571 91.89497244015217" height="91.89497244015217" width="213.1584412271571"><g id="textblocktransform"><svg viewBox="0 0 213.1584412271571 91.89497244015217" height="91.89497244015217" width="213.1584412271571" id="textblock"><g><svg viewBox="0 0 213.1584412271571 91.89497244015217" height="91.89497244015217" width="213.1584412271571"><g transform="matrix(1,0,0,1,0,0)"><svg width="213.1584412271571" viewBox="-2.05 -33.95 78.75 33.95" height="91.89497244015217" data-palette-color="#ffffff"><path d="M35.45-22.9L30.55-5.9Q30.35-5.25 30.35-4.6L30.35-4.6Q30.35-4.05 30.5-3.68 30.65-3.3 30.83-3.08 31-2.85 31.05-2.75L31.05-2.75Q31.55-2.25 31.55-1.75L31.55-1.75Q31.55-1.65 31.45-1.25L31.45-1.25Q31.25-0.55 30.58-0.28 29.9 0 28.5 0L28.5 0 16.65 0Q15.6 0 15.03-0.35 14.45-0.7 14.45-1.3L14.45-1.3Q14.45-1.6 14.6-1.95L14.6-1.95Q14.75-2.35 15.03-2.58 15.3-2.8 15.8-3.1L15.8-3.1Q16.6-3.55 17.1-4.1 17.6-4.65 17.95-5.9L17.95-5.9 19.25-10.2 11.45-10.2 10.1-7.35Q9.25-5.5 9.25-4.45L9.25-4.45Q9.25-3.85 9.45-3.48 9.65-3.1 10.05-2.7L10.05-2.7Q10.4-2.3 10.53-2.02 10.65-1.75 10.55-1.3L10.55-1.3Q10.35-0.55 9.73-0.28 9.1 0 7.75 0L7.75 0 0.3 0Q-0.85 0-1.45-0.43-2.05-0.85-2.05-1.55L-2.05-1.55Q-2.05-2.35-1.48-2.83-0.9-3.3 0.25-3.85L0.25-3.85Q1.75-4.6 2.65-5.33 3.55-6.05 4.2-7.35L4.2-7.35 13.1-25.8Q15.15-30.1 17.93-32.02 20.7-33.95 25.25-33.95L25.25-33.95Q30.35-33.95 33.15-31.88 35.95-29.8 35.95-26.1L35.95-26.1Q35.95-24.55 35.45-22.9L35.45-22.9ZM13.75-15.2L20.75-15.2 23.4-24Q23.6-24.6 23.6-25.25L23.6-25.25Q23.6-26.2 23.08-26.68 22.55-27.15 21.6-27.15L21.6-27.15Q20.4-27.15 19.55-26.45 18.7-25.75 17.85-23.95L17.85-23.95 13.75-15.2ZM73.95-33.3Q76.7-33.3 76.7-31.05L76.7-31.05Q76.7-30.35 76.4-29.3L76.4-29.3 75.2-25.25Q74.65-23.4 73.85-22.65 73.05-21.9 71.55-21.9L71.55-21.9Q70.3-21.9 69.62-22.55 68.95-23.2 68.35-24.6L68.35-24.6 67.5-26.65Q67.1-27.6 66.65-27.95 66.2-28.3 65.25-28.3L65.25-28.3 64.1-28.3 57.75-5.95Q57.6-5.3 57.6-4.8L57.6-4.8Q57.6-4.2 57.77-3.8 57.95-3.4 58.3-2.95L58.3-2.95Q58.75-2.25 58.75-1.8L58.75-1.8Q58.75-1.7 58.65-1.3L58.65-1.3Q58.4-0.65 57.67-0.35 56.95-0.05 55.6-0.05L55.6-0.05 43.85-0.05Q42.8-0.05 42.22-0.4 41.65-0.75 41.65-1.4L41.65-1.4Q41.65-1.7 41.8-2L41.8-2Q42-2.45 42.27-2.68 42.55-2.9 43.1-3.25L43.1-3.25Q43.85-3.7 44.35-4.25 44.85-4.8 45.2-5.95L45.2-5.95 51.5-28.3 50.35-28.3Q49.25-28.3 48.55-27.95 47.85-27.6 47.05-26.65L47.05-26.65 45.4-24.6Q44.25-23.25 43.17-22.58 42.1-21.9 40.85-21.9L40.85-21.9Q39.7-21.9 39.05-22.5 38.4-23.1 38.4-24.15L38.4-24.15Q38.4-24.65 38.55-25.25L38.55-25.25 39.85-29.8Q40.25-31.2 40.75-31.93 41.25-32.65 42.17-32.98 43.1-33.3 44.8-33.3L44.8-33.3 73.95-33.3Z" opacity="1" transform="matrix(1,0,0,1,0,0)" fill="#ffffff" class="wordmark-text-0" data-fill-palette-color="quaternary" id="text-0"></path></svg></g></svg></g></svg></g></svg></g></svg></g></svg></g></svg></g></svg></g><defs></defs></svg><rect width="342.85155851775386" height="342.85155851775386" fill="none" stroke="none" visibility="hidden"></rect></g></svg></g></svg>